<svg version="1.1" xmlns="http://www.w3.org/2000/svg" viewBox="0 0 515.1654027554787 393.8973878557315" width="515.1654027554787" height="393.8973878557315">
  <!-- svg-source:excalidraw -->

  <rect x="0" y="0" width="515.1654027554787" height="393.8973878557315" fill="#ffffff"></rect><g stroke-linecap="round" transform="translate(110.92959875210408 10) rotate(0 110 46.5)"><path d="M23.25 0 M23.25 0 C92.35 1.36, 160.32 -2.49, 196.75 0 M23.25 0 C90.61 -1.53, 158.53 -0.74, 196.75 0 M196.75 0 C212.93 -0.84, 221.51 7.44, 220 23.25 M196.75 0 C211.23 1.63, 221.57 6.11, 220 23.25 M220 23.25 C220.4 40.92, 220.36 57.34, 220 69.75 M220 23.25 C220.71 33.85, 220.55 44.46, 220 69.75 M220 69.75 C220.77 83.89, 212.94 93.89, 196.75 93 M220 69.75 C218.41 87.18, 211.84 94.7, 196.75 93 M196.75 93 C159.34 91.17, 122.31 93.27, 23.25 93 M196.75 93 C160.92 92.4, 125.64 93.74, 23.25 93 M23.25 93 C6.94 93.84, 0.26 84.14, 0 69.75 M23.25 93 C6.65 92.43, -2.21 85.48, 0 69.75 M0 69.75 C-0.84 55.07, 1.1 41.31, 0 23.25 M0 69.75 C0.24 56.47, -0.58 44.53, 0 23.25 M0 23.25 C-1.39 7.08, 6.38 1.25, 23.25 0 M0 23.25 C-1.56 9.32, 8.64 -1.11, 23.25 0" stroke="#1e1e1e" stroke-width="2" fill="none"></path></g><g transform="translate(117.54504675015096 39.700000000000045) rotate(0 103.38455200195312 16.80000000000001)"><text x="103.38455200195312" y="0" font-family="LocalFont, Segoe UI Emoji" font-size="28px" fill="#1e1e1e" text-anchor="middle" style="white-space: pre;" direction="ltr" dominant-baseline="text-before-edge">tabular data</text></g><g stroke-linecap="round" transform="translate(285.1654027554787 290.8973878557315) rotate(0 110 46.5)"><path d="M23.25 0 M23.25 0 C63.02 -0.63, 106.22 2.04, 196.75 0 M23.25 0 C67.55 0.98, 113.42 -0.45, 196.75 0 M196.75 0 C213.34 -1.17, 221.77 8.42, 220 23.25 M196.75 0 C213.6 0.73, 221.27 6.21, 220 23.25 M220 23.25 C219.86 36.52, 219.39 47.46, 220 69.75 M220 23.25 C219.47 34.88, 219.98 45.58, 220 69.75 M220 69.75 C218.4 83.91, 210.97 93.8, 196.75 93 M220 69.75 C219.18 87.53, 213.84 90.87, 196.75 93 M196.75 93 C155.4 94.92, 118.59 92.43, 23.25 93 M196.75 93 C136.95 91.79, 77.14 92.13, 23.25 93 M23.25 93 C7.71 91.82, 1.06 84.13, 0 69.75 M23.25 93 C6.82 93.95, -0.81 84.54, 0 69.75 M0 69.75 C-1.25 52.53, -0.07 35.16, 0 23.25 M0 69.75 C-0.36 58.05, 0.71 44.49, 0 23.25 M0 23.25 C-0.18 6.16, 6.6 -0.26, 23.25 0 M0 23.25 C-1.15 8.48, 6.66 -0.64, 23.25 0" stroke="#1e1e1e" stroke-width="2" fill="none"></path></g><g transform="translate(317.62698875401384 320.5973878557315) rotate(0 77.53841400146484 16.80000000000001)"><text x="77.53841400146484" y="0" font-family="LocalFont, Segoe UI Emoji" font-size="28px" fill="#1e1e1e" text-anchor="middle" style="white-space: pre;" direction="ltr" dominant-baseline="text-before-edge">variables</text></g><g mask="url(#mask-p-y6Y5SKG6uuTFTuqR9nZ)" stroke-linecap="round"><g transform="translate(251.01331209195087 105) rotate(0 57.309291348349916 92.62431984268528)"><path d="M-0.57 0.84 C18.51 31.58, 95.93 153.2, 115.19 183.62 M1.32 0.24 C20.3 31.23, 95.94 154.32, 114.84 185.01" stroke="#1e1e1e" stroke-width="2" fill="none"></path></g><g transform="translate(251.01331209195087 105) rotate(0 57.309291348349916 92.62431984268528)"><path d="M92.73 168.25 C99.08 174.65, 106.96 180.49, 113.48 185.7 M91.15 167.11 C98.49 171.92, 106.74 179.41, 114.48 186" stroke="#1e1e1e" stroke-width="2" fill="none"></path></g><g transform="translate(251.01331209195087 105) rotate(0 57.309291348349916 92.62431984268528)"><path d="M110.21 157.5 C110.29 167.63, 111.96 177.29, 113.48 185.7 M108.63 156.36 C109.88 165.02, 112.11 176.21, 114.48 186" stroke="#1e1e1e" stroke-width="2" fill="none"></path></g></g><mask id="mask-p-y6Y5SKG6uuTFTuqR9nZ"><rect x="0" y="0" fill="#fff" width="465.08168941563144" height="388.8973878557315"></rect><rect x="282.2013627533029" y="180.1486939278658" fill="#000" width="51.69227600097656" height="33.6" opacity="1"></rect></mask><g transform="translate(282.2013627533029 180.1486939278658) rotate(0 26.121240686997908 17.47562591481949)"><text x="25.84613800048828" y="0" font-family="LocalFont, Segoe UI Emoji" font-size="28px" fill="#1e1e1e" text-anchor="middle" style="white-space: pre;" direction="ltr" dominant-baseline="text-before-edge">has</text></g><g mask="url(#mask-KnLSPlR-8DF2-JqJZsv8Z)" stroke-linecap="round"><g transform="translate(203.35040073755545 105) rotate(0 -32.89682725857574 90.09246739084799)"><path d="M0.63 0.25 C-10.42 30.57, -54.6 150.73, -65.54 180.85 M-0.49 -0.67 C-11.77 29.41, -55.6 149.18, -66.43 179.15" stroke="#1e1e1e" stroke-width="2" fill="none"></path></g><g transform="translate(203.35040073755545 105) rotate(0 -32.89682725857574 90.09246739084799)"><path d="M-66.01 149.35 C-65.37 161.25, -65.13 172.46, -66.87 180.06 M-67.42 149.7 C-67.16 159.96, -65.83 171.35, -67.04 178.68" stroke="#1e1e1e" stroke-width="2" fill="none"></path></g><g transform="translate(203.35040073755545 105) rotate(0 -32.89682725857574 90.09246739084799)"><path d="M-46.73 156.37 C-53.11 165.79, -59.96 174.42, -66.87 180.06 M-48.14 156.72 C-54.87 164.41, -60.52 173.26, -67.04 178.68" stroke="#1e1e1e" stroke-width="2" fill="none"></path></g></g><mask id="mask-KnLSPlR-8DF2-JqJZsv8Z"><rect x="0" y="0" fill="#fff" width="369.0139472349788" height="385.05926672358"></rect><rect x="144.6724894883555" y="178.22963336178998" fill="#000" width="51.69227600097656" height="33.6" opacity="1"></rect></mask><g transform="translate(144.6724894883555 178.22963336178998) rotate(0 25.78108399062421 16.862834029058007)"><text x="25.84613800048828" y="0" font-family="LocalFont, Segoe UI Emoji" font-size="28px" fill="#1e1e1e" text-anchor="middle" style="white-space: pre;" direction="ltr" dominant-baseline="text-before-edge">has</text></g><g stroke-linecap="round" transform="translate(10 287.05926672358) rotate(0 110 46.5)"><path d="M23.25 0 M23.25 0 C93.99 1.56, 161.68 0.93, 196.75 0 M23.25 0 C68.13 0.18, 113.31 1.23, 196.75 0 M196.75 0 C214.02 0.39, 218.98 9.26, 220 23.25 M196.75 0 C212.04 -0.04, 219.53 8.29, 220 23.25 M220 23.25 C219.04 40.22, 222.31 57.54, 220 69.75 M220 23.25 C219.27 34.65, 220.55 46.89, 220 69.75 M220 69.75 C218.14 85.17, 213.53 93.78, 196.75 93 M220 69.75 C220.78 84, 212.73 91.51, 196.75 93 M196.75 93 C154.46 94.37, 114.76 93.64, 23.25 93 M196.75 93 C151.51 92.54, 104.9 93.25, 23.25 93 M23.25 93 C6.05 92.61, 0.65 85.01, 0 69.75 M23.25 93 C7.23 94.82, -2.23 87.5, 0 69.75 M0 69.75 C0.83 59.96, -0.8 52.84, 0 23.25 M0 69.75 C0.76 52.84, -0.07 38.18, 0 23.25 M0 23.25 C-0.41 6.36, 8.97 1.49, 23.25 0 M0 23.25 C1.65 9.9, 5.99 -0.08, 23.25 0" stroke="#1e1e1e" stroke-width="2" fill="none"></path></g><g transform="translate(16.615447998046875 316.75926672357997) rotate(0 103.38455200195312 16.80000000000001)"><text x="103.38455200195312" y="0" font-family="LocalFont, Segoe UI Emoji" font-size="28px" fill="#1e1e1e" text-anchor="middle" style="white-space: pre;" direction="ltr" dominant-baseline="text-before-edge">observations</text></g></svg>
