<svg height="393.897388" viewBox="0 0 515.16540276 393.89738786" width="515.165403" xmlns="http://www.w3.org/2000/svg" xmlns:xlink="http://www.w3.org/1999/xlink"><mask id="a"><path d="m0 0h465.081689v388.897388h-465.081689z" fill="#fff"/><path d="m282.201363 180.148694h51.692276v33.6h-51.692276z"/></mask><mask id="b"><path d="m0 0h369.013947v385.059267h-369.013947z" fill="#fff"/><path d="m144.672489 178.229633h51.692276v33.6h-51.692276z"/></mask><path d="m0 0h515.165403v393.897388h-515.165403z" fill="#fff"/><path d="m23.25 0c69.1 1.36 137.07-2.49 173.5 0m-173.5 0c67.36-1.53 135.28-.74 173.5 0m0 0c16.18-.84 24.76 7.44 23.25 23.25m-23.25-23.25c14.48 1.63 24.82 6.11 23.25 23.25m0 0c.4 17.67.36 34.09 0 46.5m0-46.5c.71 10.6.55 21.21 0 46.5m0 0c.77 14.14-7.06 24.14-23.25 23.25m23.25-23.25c-1.59 17.43-8.16 24.95-23.25 23.25m0 0c-37.41-1.83-74.44.27-173.5 0m173.5 0c-35.83-.6-71.11.74-173.5 0m0 0c-16.31.84-22.99-8.86-23.25-23.25m23.25 23.25c-16.6-.57-25.46-7.52-23.25-23.25m0 0c-.84-14.68 1.1-28.44 0-46.5m0 46.5c.24-13.28-.58-25.22 0-46.5m0 0c-1.39-16.17 6.38-22 23.25-23.25m-23.25 23.25c-1.56-13.93 8.64-24.36 23.25-23.25" fill="none" stroke="#1e1e1e" stroke-linecap="round" stroke-width="2" transform="translate(110.929599 10)"/><text dominant-baseline="text-before-edge" fill="#1e1e1e" font-family="LocalFont, Segoe UI Emoji" font-size="28" text-anchor="middle" transform="translate(117.545047 39.7)" x="103.384552">tabular data</text><path d="m23.25 0c39.77-.63 82.97 2.04 173.5 0m-173.5 0c44.3.98 90.17-.45 173.5 0m0 0c16.59-1.17 25.02 8.42 23.25 23.25m-23.25-23.25c16.85.73 24.52 6.21 23.25 23.25m0 0c-.14 13.27-.61 24.21 0 46.5m0-46.5c-.53 11.63-.02 22.33 0 46.5m0 0c-1.6 14.16-9.03 24.05-23.25 23.25m23.25-23.25c-.82 17.78-6.16 21.12-23.25 23.25m0 0c-41.35 1.92-78.16-.57-173.5 0m173.5 0c-59.8-1.21-119.61-.87-173.5 0m0 0c-15.54-1.18-22.19-8.87-23.25-23.25m23.25 23.25c-16.43.95-24.06-8.46-23.25-23.25m0 0c-1.25-17.22-.07-34.59 0-46.5m0 46.5c-.36-11.7.71-25.26 0-46.5m0 0c-.18-17.09 6.6-23.51 23.25-23.25m-23.25 23.25c-1.15-14.77 6.66-23.89 23.25-23.25" fill="none" stroke="#1e1e1e" stroke-linecap="round" stroke-width="2" transform="translate(285.165403 290.897388)"/><text dominant-baseline="text-before-edge" fill="#1e1e1e" font-family="LocalFont, Segoe UI Emoji" font-size="28" text-anchor="middle" transform="translate(317.626989 320.597388)" x="77.538414">variables</text><g fill="none" mask="url(#a)" stroke="#1e1e1e" stroke-linecap="round" stroke-width="2"><path d="m-.57.84c19.08 30.74 96.5 152.36 115.76 182.78m-113.87-183.38c18.98 30.99 94.62 154.08 113.52 184.77" transform="translate(251.013312 105)"/><path d="m92.73 168.25c6.35 6.4 14.23 12.24 20.75 17.45m-22.33-18.59c7.34 4.81 15.59 12.3 23.33 18.89" transform="translate(251.013312 105)"/><path d="m110.21 157.5c.08 10.13 1.75 19.79 3.27 28.2m-4.85-29.34c1.25 8.66 3.48 19.85 5.85 29.64" transform="translate(251.013312 105)"/></g><text dominant-baseline="text-before-edge" fill="#1e1e1e" font-family="LocalFont, Segoe UI Emoji" font-size="28" text-anchor="middle" transform="translate(282.201363 180.148694)" x="25.846138">has</text><g fill="none" mask="url(#b)" stroke="#1e1e1e" stroke-linecap="round" stroke-width="2"><path d="m.63.25c-11.05 30.32-55.23 150.48-66.17 180.6m65.05-181.52c-11.28 30.08-55.11 149.85-65.94 179.82" transform="translate(203.350401 105)"/><path d="m-66.01 149.35c.64 11.9.88 23.11-.86 30.71m-.55-30.36c.26 10.26 1.59 21.65.38 28.98" transform="translate(203.350401 105)"/><path d="m-46.73 156.37c-6.38 9.42-13.23 18.05-20.14 23.69m18.73-23.34c-6.73 7.69-12.38 16.54-18.9 21.96" transform="translate(203.350401 105)"/></g><text dominant-baseline="text-before-edge" fill="#1e1e1e" font-family="LocalFont, Segoe UI Emoji" font-size="28" text-anchor="middle" transform="translate(144.672489 178.229633)" x="25.846138">has</text><path d="m23.25 0c70.74 1.56 138.43.93 173.5 0m-173.5 0c44.88.18 90.06 1.23 173.5 0m0 0c17.27.39 22.23 9.26 23.25 23.25m-23.25-23.25c15.29-.04 22.78 8.29 23.25 23.25m0 0c-.96 16.97 2.31 34.29 0 46.5m0-46.5c-.73 11.4.55 23.64 0 46.5m0 0c-1.86 15.42-6.47 24.03-23.25 23.25m23.25-23.25c.78 14.25-7.27 21.76-23.25 23.25m0 0c-42.29 1.37-81.99.64-173.5 0m173.5 0c-45.24-.46-91.85.25-173.5 0m0 0c-17.2-.39-22.6-7.99-23.25-23.25m23.25 23.25c-16.02 1.82-25.48-5.5-23.25-23.25m0 0c.83-9.79-.8-16.91 0-46.5m0 46.5c.76-16.91-.07-31.57 0-46.5m0 0c-.41-16.89 8.97-21.76 23.25-23.25m-23.25 23.25c1.65-13.35 5.99-23.33 23.25-23.25" fill="none" stroke="#1e1e1e" stroke-linecap="round" stroke-width="2" transform="translate(10 287.059267)"/><text dominant-baseline="text-before-edge" fill="#1e1e1e" font-family="LocalFont, Segoe UI Emoji" font-size="28" text-anchor="middle" transform="translate(16.615448 316.759267)" x="103.384552">observations</text></svg>